<?xml version="1.0" encoding="utf-8"?>
<!-- Generator: Adobe Illustrator 15.0.0, SVG Export Plug-In  -->
<!DOCTYPE svg PUBLIC "-//W3C//DTD SVG 1.1//EN" "http://www.w3.org/Graphics/SVG/1.1/DTD/svg11.dtd" [
	<!ENTITY ns_flows "http://ns.adobe.com/Flows/1.0/">
]>
<svg version="1.1"
	 xmlns="http://www.w3.org/2000/svg" xmlns:xlink="http://www.w3.org/1999/xlink" xmlns:a="http://ns.adobe.com/AdobeSVGViewerExtensions/3.0/"
	 x="0px" y="0px" width="20px" height="20px" viewBox="-0.4 -0.4 20 20"
	 overflow="visible" enable-background="new -0.4 -0.4 20 20" xml:space="preserve">
<defs>
</defs>
<g>
	<g>
		<path fill-rule="evenodd" clip-rule="evenodd" fill="#FFFFFF" d="M18.64,16.094l-4.218-4.218C15.156,10.688,15.6,9.299,15.6,7.8
			c0-4.308-3.492-7.8-7.8-7.8C3.492,0,0,3.492,0,7.8s3.492,7.8,7.8,7.8c1.5,0,2.888-0.444,4.077-1.178l4.218,4.217
			c0.703,0.703,1.843,0.703,2.546,0C19.342,17.937,19.342,16.797,18.64,16.094z M7.8,13.199c-2.982,0-5.4-2.417-5.4-5.399
			s2.417-5.4,5.4-5.4c2.983,0,5.4,2.418,5.4,5.4S10.783,13.199,7.8,13.199z"/>
	</g>
</g>
</svg>
